<svg width="41" height="35" viewBox="0 0 41 35" fill="none" xmlns="http://www.w3.org/2000/svg">
<path d="M32.2283 1.82541C26.0252 -1.2632 19.5065 -0.34382 17.3852 3.91341C17.3631 3.95587 17.3428 3.99833 17.3225 4.04264C17.3169 4.05556 17.3114 4.06849 17.304 4.08141L14.5311 9.65126C14.4628 9.78972 14.3151 9.8691 14.16 9.85433C13.5729 9.7971 12.9692 9.76756 12.3545 9.76756C5.42585 9.76756 0 13.4949 0 18.2506V26.0211C0 30.7786 5.42769 34.5042 12.3563 34.5042C19.2849 34.5042 24.7108 30.7786 24.7108 26.0211V25.7682C24.7108 25.53 24.9305 25.351 25.1631 25.4045C26.3003 25.6666 27.4135 25.7959 28.4732 25.7959C31.9034 25.7959 34.7705 24.4426 36.0443 21.882L39.4338 15.0716C39.4578 15.0236 39.4837 14.9737 39.5077 14.9257C41.6271 10.6666 38.4295 4.91403 32.2265 1.82541H32.2283ZM20.4665 26.0211C20.4665 28.447 16.1852 30.258 12.3582 30.258C8.53108 30.258 4.248 28.447 4.248 26.0211V25.3325C4.248 25.0519 4.54523 24.8746 4.79446 25.0039C6.87138 26.0931 9.48554 26.7337 12.3563 26.7337C15.2271 26.7337 17.8449 26.0931 19.9218 25.0039C20.1711 24.8728 20.4683 25.0519 20.4683 25.3325V26.0211H20.4665ZM12.3563 14.0137C12.552 14.0137 12.7477 14.0174 12.9452 14.0285C13.1298 14.0377 13.2831 14.1762 13.3015 14.3589C13.4234 15.6513 13.8942 16.9786 14.6714 18.2506C15.2714 19.2346 16.0505 20.1891 16.992 21.0716C17.1932 21.2599 17.1305 21.5977 16.8702 21.6919C15.4948 22.1977 13.8905 22.4876 12.3563 22.4876C8.52923 22.4876 4.248 20.6765 4.248 18.2506C4.248 15.8248 8.52923 14.0137 12.3563 14.0137ZM23.0972 20.1688C22.9274 20.0839 22.7575 19.9953 22.5895 19.9011C22.4954 19.8476 22.3994 19.794 22.3071 19.7386C21.6591 19.3565 21.0369 18.9153 20.4665 18.4371C20.4665 18.4371 20.4609 18.4316 20.4572 18.4297C20.3871 18.3706 20.3169 18.3097 20.2486 18.2506C19.176 17.3109 18.3157 16.2476 17.8597 15.2303C17.4702 14.3608 17.376 13.5245 17.6954 12.8248C17.7046 12.8026 17.7138 12.7823 17.7249 12.762L18.0314 12.1454C18.1569 11.8943 18.5022 11.8685 18.6665 12.0956C20.0234 13.9731 22.0468 15.6937 24.5778 16.9676C24.6074 16.9842 24.6388 16.999 24.6683 17.0137C27.0609 18.2063 29.6049 18.8377 31.9532 18.8377C32.04 18.8377 32.1268 18.8377 32.2135 18.8359C32.4923 18.8303 32.6751 19.1239 32.5514 19.3731L32.2449 19.9897C31.3274 21.834 27.8418 21.9042 24.7126 20.8389C24.5483 20.7836 24.3858 20.7245 24.2252 20.6617C23.8394 20.514 23.4609 20.3497 23.0972 20.1688ZM35.7083 13.0353C35.2948 13.8605 34.2055 14.4162 32.7212 14.5565C30.8714 14.7319 28.6265 14.2426 26.5588 13.2125C23.1582 11.5196 20.1526 8.03033 21.1643 5.85556L21.1883 5.80757H21.1865C21.72 4.7368 23.1194 4.26418 24.8105 4.26418C26.5015 4.26418 28.5988 4.76449 30.336 5.62849C33.7625 7.33433 36.7883 10.8642 35.7083 13.0353Z" fill="#01CFC9"/>
</svg>
