<svg width="57" height="53" viewBox="0 0 57 53" fill="none" xmlns="http://www.w3.org/2000/svg">
<path d="M56.3018 41.8458C56.2304 41.6701 56.1398 41.4999 56.0328 41.338C55.9257 41.176 55.8022 41.0223 55.6595 40.8796L51.479 36.6991L39.3549 24.575C38.6797 23.8998 38.2927 22.9939 38.2927 22.0442V9.37112H38.2981V1.2655C38.2981 0.743973 37.6668 0.480465 37.2963 0.851023L33.824 4.32604C32.4323 5.72043 31.7379 7.54578 31.7351 9.37112V23.2739C31.7351 25.1761 32.4927 27.0015 33.8377 28.3492L34.7133 29.2166L35.943 30.4463H21.4254L22.6551 29.2166H22.6633L23.5335 28.3492C24.8784 27.0015 25.636 25.1761 25.636 23.2739V22.0442H25.6333V9.37112H25.636C25.6333 7.54578 24.9388 5.72043 23.5444 4.32604L20.0694 0.851023C19.7016 0.480465 19.0703 0.743973 19.0703 1.2655V4.55112C19.073 4.58131 19.073 4.6115 19.073 4.6417V7.22737L19.0703 18.2069H19.0758V22.0442C19.0758 22.9939 18.697 23.908 18.0245 24.5832L18.0135 24.575L16.954 25.6318L5.88664 36.6991L1.70894 40.8796C0.567072 42.0187 0.567072 43.8687 1.70894 45.0106L4.28364 47.5853L8.53545 51.8344C9.08168 52.3806 9.82554 52.688 10.5996 52.688H46.7688C47.5429 52.688 48.2868 52.3806 48.833 51.8344L53.0821 47.5853L55.6595 45.0106C55.7309 44.9392 55.7967 44.8651 55.8599 44.7883C56.2963 44.253 56.5159 43.5997 56.5159 42.9437C56.5159 42.5704 56.4445 42.1971 56.3018 41.8458ZM49.3106 46.125H8.05784C7.20418 46.125 6.77598 45.093 7.37986 44.4918L10.5282 41.3407L14.8624 37.0093H42.506L46.8375 41.3407L49.9886 44.4918C50.5924 45.093 50.1642 46.125 49.3106 46.125Z" fill="white"/>
</svg>
