<svg width="56" height="61" viewBox="0 0 56 61" fill="none" xmlns="http://www.w3.org/2000/svg">
<path d="M43.9592 28.1432L43.9482 38.7083C43.8878 40.594 43.1577 41.5135 41.7414 43.0561L28.1926 56.6076C26.2657 58.5345 24.1439 58.5345 22.217 56.6076L8.76165 43.0561C7.34529 41.5135 6.61241 40.594 6.55477 38.7083L6.52457 10.6776C6.52457 7.95191 8.02602 6.45046 10.7517 6.45046H39.7541C42.4797 6.45046 43.9784 7.95191 43.9784 10.6776V13.5432L48.1012 9.40669L40.863 2.16845C39.3615 0.667005 37.8052 0 35.6367 0H14.8635C12.6951 0 11.1387 0.667005 9.63726 2.16845L2.24256 9.56315C0.741117 11.0646 0.0741118 12.6209 0.0741118 14.7894L0 38.7686C0.021959 40.561 -0.11803 43.273 1.9571 45.4799L14.7482 58.2545C16.2826 59.7889 17.8554 60.4175 19.9772 60.4175H30.4352C32.557 60.4175 34.1298 59.7889 35.6642 58.2545L45.7736 48.1808L48.5486 45.4799C50.621 43.273 50.481 40.561 50.5057 38.7686L50.4536 21.6351L43.9647 28.1377L43.9592 28.1432Z" fill="white"/>
<path d="M28.4031 31.8734C26.4762 33.8003 24.3544 33.8003 22.4275 31.8734L16.4436 25.6617C16.0895 25.3131 15.5159 25.3131 15.1618 25.6617L11.7636 28.9912C11.4095 29.3398 11.4095 29.9025 11.7636 30.2511L14.9587 33.5258C16.493 35.0602 18.0659 35.6887 20.1876 35.6887H30.6456C32.7674 35.6887 34.3402 35.0602 35.8746 33.5258L54.9597 14.4022C55.3138 14.0536 55.3138 13.4909 54.9597 13.1423L51.6879 9.82102C51.3338 9.47242 50.7601 9.47242 50.406 9.82102L28.4058 31.8734H28.4031Z" fill="white"/>
</svg>
