<svg width="33" height="47" viewBox="0 0 33 47" fill="none" xmlns="http://www.w3.org/2000/svg">
<path d="M21.8399 39.7607H26.5014C26.7986 39.7607 27.0405 40.0026 27.0405 40.2998V43.562C27.0405 43.8592 26.7986 44.1011 26.5014 44.1011H21.8399C21.5426 44.1011 21.3008 43.8592 21.3008 43.562V40.2998C21.3008 40.0026 21.5426 39.7607 21.8399 39.7607Z" fill="#01CFC9"/>
<path d="M15.5908 33.8515L12.9249 31.1856L10.1372 28.3979C9.77723 28.0379 9.97477 27.4472 10.4326 27.3401C10.4806 27.3272 10.5305 27.3216 10.584 27.3216H12.9766C13.2757 27.3216 13.5194 27.0779 13.5194 26.7789V23.537C13.5194 23.2379 13.2757 22.9961 12.9766 22.9961H9.624C9.49108 22.9961 9.36185 23.009 9.23631 23.0349C8.29108 23.1419 7.41785 23.4816 6.72923 24.1702L1.27938 29.6293C0.420923 30.4878 0 31.6306 0 32.8453V46.0287C0 46.3573 0.265846 46.6232 0.594462 46.6232H3.72739C4.056 46.6232 4.32185 46.3573 4.32185 46.0287V29.8656C4.32185 28.4699 5.45169 27.3401 6.84739 27.3401H7.70031V31.2816C7.70215 31.7912 7.90523 32.2804 8.26523 32.6422L8.81169 33.1887L9.86769 34.2429L12.5354 36.9106C12.7514 37.1266 13.1022 37.1266 13.3182 36.9106L15.5945 34.6342C15.8105 34.4182 15.8105 34.0675 15.5945 33.8515H15.5908Z" fill="#01CFC9"/>
<path d="M22.8504 34.2447L20.5589 36.5362L20.4227 36.6724L20.4389 36.6886C20.04 37.1526 19.8176 37.7473 19.8176 38.3635V43.5475C19.8176 43.7476 19.6565 43.9087 19.4564 43.9087H16.2238C16.0237 43.9087 15.8625 43.7476 15.8625 43.5475V37.5493C15.8625 36.3395 16.3425 35.1793 17.198 34.3238C17.198 34.3238 17.1981 34.3237 17.1981 34.3237L17.7175 33.8059H17.7196L17.776 33.7495L20.1963 31.3292L20.3325 31.193L20.3251 31.1857L22.9766 28.5341C23.4473 28.0634 23.1881 27.2951 22.5919 27.1533C22.5256 27.1357 22.4596 27.129 22.3936 27.129H20.001C19.8083 27.129 19.6509 26.9716 19.6509 26.7789V23.537C19.6509 23.3452 19.8074 23.1887 20.001 23.1887H23.3536C23.5718 23.1887 23.7792 23.2287 23.9697 23.3015L23.9837 23.3069L23.9983 23.31C24.7116 23.4622 25.3558 23.7753 25.8869 24.3065L25.8869 24.3065L25.8885 24.308L31.2316 29.5294L31.3185 29.6161C32.1385 30.4344 32.5413 31.5242 32.5413 32.6939V46.0287C32.5413 46.2509 32.3617 46.4305 32.1395 46.4305H29.0065C28.7843 46.4305 28.6047 46.2509 28.6047 46.0287V29.8656C28.6047 28.3636 27.3886 27.1475 25.8865 27.1475H25.2755H25.0828V27.3401V31.2816C25.0828 31.7398 24.9002 32.1802 24.5761 32.5062C24.576 32.5062 24.5759 32.5063 24.5758 32.5064L24.0281 33.0523L24.0279 33.0525L22.9793 34.1011L22.8431 34.2373L22.8504 34.2447Z" fill="#01CFC9" stroke="#01CFC9" stroke-width="0.385246"/>
<path d="M16.7674 21.1071C22.5846 21.1071 27.32 16.3717 27.32 10.5545C27.32 4.73723 22.5846 0 16.7674 0C10.9501 0 6.21289 4.73538 6.21289 10.5545C6.21289 16.3735 10.9483 21.1071 16.7674 21.1071ZM16.7674 4.33662C20.1938 4.33662 22.9834 7.12615 22.9834 10.5545C22.9834 13.9828 20.1938 16.7705 16.7674 16.7705C13.3409 16.7705 10.5495 13.9809 10.5495 10.5545C10.5495 7.128 13.339 4.33662 16.7674 4.33662Z" fill="#01CFC9"/>
</svg>
