<svg width="34" height="41" viewBox="0 0 34 41" fill="none" xmlns="http://www.w3.org/2000/svg">
<path d="M23.3196 13.911V13.8925C24.6729 13.4716 25.4206 12.6094 25.4206 11.0974C25.4206 9.21989 24.2095 7.97559 21.3775 7.97559C18.5455 7.97559 17.3178 9.21989 17.3178 11.0974C17.2993 12.6297 18.0655 13.4716 19.4187 13.8925C17.7092 14.295 16.8359 15.3104 16.8359 16.7467C16.8359 18.6427 18.1006 19.9645 21.3775 19.9645C24.6544 19.9645 25.8839 18.6427 25.8839 16.7467C25.8839 15.3104 25.0292 14.3153 23.3196 13.9128V13.911ZM19.2599 11.5553C19.2599 10.5399 19.8655 9.92697 21.3793 9.92697C22.8932 9.92697 23.4802 10.5399 23.4802 11.5553C23.4802 12.7239 22.6439 13.202 21.3793 13.202C20.1147 13.202 19.2599 12.7239 19.2599 11.5553ZM21.3793 18.0094C19.6698 18.0094 18.887 17.3965 18.887 16.3811C18.887 15.5005 19.3855 14.6956 21.3793 14.6956C23.3732 14.6956 23.855 15.5005 23.855 16.3811C23.855 17.3965 23.0722 18.0094 21.3793 18.0094Z" fill="#01CFC9"/>
<path d="M11.9053 7.97559C9.07327 7.97559 7.61296 9.56512 7.61296 11.9393C7.61296 14.3134 9.16189 15.29 11.1576 15.29C13.0093 15.29 14.2204 14.4851 14.5767 12.5522H14.6487V13.4531C14.6487 16.575 13.8825 18.0113 11.9957 18.0113C10.4634 18.0113 9.71573 17.2839 9.39635 15.7516L7.47266 16.1337C7.8825 18.6242 9.21727 19.9645 11.9957 19.9645C15.2727 19.9645 16.5908 17.3024 16.5908 13.9128C16.5908 9.56513 14.7207 7.97559 11.9071 7.97559H11.9053ZM11.8167 13.874C10.3748 13.874 9.5902 13.2224 9.5902 11.9965C9.5902 10.7707 10.1607 9.92882 11.9404 9.92882C13.5964 9.92882 14.4345 10.8094 14.4345 11.9005C14.4345 12.9344 13.5982 13.8722 11.8167 13.8722V13.874Z" fill="#01CFC9"/>
<path d="M33.9157 9.94708C33.9157 8.48862 33.4671 7.44185 32.4572 6.432L27.4837 1.45846C26.4738 0.448615 25.4271 0 23.9686 0H9.99692C8.53846 0 7.49169 0.448615 6.48185 1.45846L1.50831 6.432C0.498462 7.44185 0.0498462 8.48862 0.0498462 9.94708L0 26.0769C0.0147692 27.2825 -0.0793844 29.1065 1.31631 30.5908L9.91754 39.1828C10.9495 40.2129 12.0074 40.6375 13.4345 40.6375H20.5311C21.9582 40.6375 23.016 40.2129 24.048 39.1828L32.6492 30.5908C34.0449 29.1065 33.9508 27.2825 33.9655 26.0769L33.9157 9.94708ZM14.4978 36.8179H12.2843V36.7865L12.9803 36.0942L16.5951 32.4979L16.7834 32.7009L14.4978 36.8179ZM14.3668 32.7637C12.8529 32.7637 11.8911 31.7151 11.8911 29.9926C11.8911 28.2702 12.8529 27.2677 14.3668 27.2677C15.8806 27.2677 16.8425 28.3015 16.8425 29.9926C16.8425 31.6837 15.8806 32.7637 14.3668 32.7637ZM21.8788 35.1951C21.6351 36.1071 21.0277 36.7145 20.1692 36.9175C19.9625 36.9655 19.7428 36.9914 19.5083 36.9914C17.9945 36.9914 17.0345 35.9409 17.0345 34.2351C17.0345 32.5292 17.9945 31.5102 19.5083 31.5102C21.0222 31.5102 21.9988 32.5292 21.9988 34.2351C21.9988 34.584 21.9582 34.9052 21.8806 35.1951H21.8788ZM17.1489 31.5729L19.4345 27.4394H21.648V27.4708L17.3372 31.7612L17.1489 31.5729ZM29.5625 20.3188H29.5569V21.6997C29.5569 23.4849 28.1095 24.9323 26.3225 24.9323H7.62831C5.928 24.9323 4.53231 23.6197 4.40492 21.9508V20.3188L4.39385 12.3212L4.38831 7.17969C4.38831 7.10769 4.39015 7.03754 4.39385 6.96923C4.46769 5.27077 5.47015 4.33846 7.22954 4.33846H26.736C28.4178 4.33846 29.4055 5.18954 29.5569 6.74585C29.5698 6.88431 29.5772 7.03016 29.5772 7.17969L29.5625 20.3188Z" fill="#01CFC9"/>
<path d="M19.5071 32.7324C18.7649 32.7324 18.3145 33.2641 18.3145 34.2352C18.3145 35.2063 18.7354 35.7693 19.5071 35.7693C20.2788 35.7693 20.7163 35.2063 20.7163 34.2352C20.7163 33.2641 20.2658 32.7324 19.5071 32.7324Z" fill="#01CFC9"/>
<path d="M14.3663 28.5049C13.6094 28.5049 13.1719 29.0218 13.1719 29.9929C13.1719 30.964 13.5799 31.5418 14.3663 31.5418C15.1528 31.5418 15.5608 30.9787 15.5608 29.9929C15.5608 29.007 15.1085 28.5049 14.3663 28.5049Z" fill="#01CFC9"/>
</svg>
