<svg width="62" height="64" viewBox="0 0 62 64" fill="none" xmlns="http://www.w3.org/2000/svg">
<path d="M58.9995 46.1462C57.6847 45.331 55.9994 44.8809 54.2564 44.8809C52.5134 44.8809 50.828 45.331 49.5132 46.1462C48.1628 46.9862 47.2569 48.1692 46.9083 49.5005C46.6558 49.4813 46.4005 49.4703 46.1425 49.4703C44.3995 49.4703 42.7169 49.9205 41.3994 50.7384C39.6619 51.8172 38.6572 53.4641 38.6353 55.2702V55.3306L38.5996 57.1559V57.2163C38.5996 60.5568 41.8276 63.0766 46.1068 63.0766C49.8371 63.0766 52.7687 61.1635 53.4604 58.4598C53.7102 58.479 53.9627 58.4872 54.2207 58.4872C58.4862 58.4872 61.706 55.9866 61.7307 52.6626L61.7636 50.9114C61.7636 50.8757 61.7636 50.84 61.7636 50.8016V50.7412C61.7636 48.9131 60.7563 47.2387 58.9968 46.1462H58.9995ZM46.1425 52.6269C46.3347 52.6269 46.5268 52.6351 46.7135 52.6489C46.719 53.6041 46.9852 54.4934 47.4683 55.273C47.4793 55.2922 47.493 55.3114 47.5067 55.3306C47.9569 56.0415 48.5855 56.6619 49.354 57.1587C48.558 57.6967 47.4134 58.0371 46.1425 58.0371C43.7408 58.0371 41.7919 56.8238 41.7919 55.3306C41.7919 53.8374 43.7408 52.6269 46.1425 52.6269ZM54.2564 53.4449C53.9078 53.4449 53.5674 53.4202 53.2435 53.3708C51.3303 53.088 49.9058 52.0175 49.9058 50.7412C49.9058 50.5765 49.9305 50.4145 49.9771 50.2581C50.3422 48.9954 52.1209 48.0375 54.2564 48.0375C56.6609 48.0375 58.6098 49.248 58.6098 50.7412C58.6098 52.2344 56.6609 53.4449 54.2564 53.4449Z" fill="white"/>
<path d="M48.1598 24.1351C48.1598 24.1351 48.1515 24.1296 48.1488 24.1241L27.6116 3.58696H27.6089C24.8311 0.866787 20.9663 -0.373898 16.709 0.098221C12.6713 0.548381 8.72686 2.51371 5.60868 5.63738C-0.987256 12.2333 -1.89032 22.0737 3.56375 27.6376L24.0872 48.1638C24.0954 48.172 24.1037 48.1802 24.1119 48.1912C26.5137 50.5902 29.7416 51.8666 33.3429 51.8666C33.9221 51.8666 34.5067 51.8337 35.1024 51.7678C37.1226 51.5427 39.1154 50.9388 40.9984 50.0001C42.8786 49.0641 44.6436 47.7932 46.2054 46.2314C49.3263 43.1104 51.2917 39.1661 51.7418 35.1283C52.2194 30.8244 50.9486 26.9239 48.1653 24.1379L48.1598 24.1351ZM22.8932 22.9219C20.1126 25.7024 18.2516 29.139 17.5599 32.7128L8.10927 23.2622C5.02128 20.1742 5.90238 14.27 10.0719 10.1006C12.1827 7.98974 14.7876 6.66397 17.4062 6.37301C19.7613 6.1095 21.8309 6.73808 23.2308 8.13797L32.6814 17.5886C29.1076 18.2803 25.6737 20.1413 22.8932 22.9246V22.9219ZM45.4616 34.4256C45.3161 35.735 44.9126 37.0415 44.2813 38.2849C43.6499 39.5284 42.7908 40.7087 41.734 41.7627C39.6232 43.8735 37.0183 45.1993 34.3997 45.4902C32.0391 45.751 29.9722 45.1252 28.5723 43.7253L28.5641 43.7171C27.1697 42.3144 26.5439 40.2475 26.8074 37.8979C27.0983 35.2766 28.4214 32.6717 30.5322 30.5609C32.643 28.4501 35.2479 27.127 37.8692 26.8333C38.2206 26.7949 38.5637 26.7757 38.9013 26.7757C40.8282 26.7757 42.5026 27.407 43.6966 28.601C45.0965 30.0009 45.7223 32.0705 45.4616 34.4256Z" fill="white"/>
</svg>
