<svg width="135" height="71" viewBox="0 0 135 71" fill="none" xmlns="http://www.w3.org/2000/svg">
<path d="M117.24 14.8614L119.313 16.9353C119.851 17.4727 120.081 18.0489 120.081 18.8168V30.2608C120.081 30.5297 119.889 30.7217 119.62 30.7217H118.008C117.739 30.7217 117.547 30.5297 117.547 30.2608V18.1639C117.547 17.1657 117.009 16.6279 116.011 16.6279H103.914C103.645 16.6279 103.453 16.4359 103.453 16.167V14.554C103.453 14.2855 103.645 14.0932 103.914 14.0932H115.358C116.126 14.0932 116.702 14.3236 117.24 14.8614ZM120.389 15.8601L118.315 13.7862C117.777 13.2484 117.547 12.6725 117.547 11.9043V0.460254C117.547 0.191746 117.739 -0.000211607 118.008 -0.000211607H119.62C119.889 -0.000211607 120.081 0.191746 120.081 0.460254V12.5571C120.081 13.5558 120.619 14.0932 121.617 14.0932H133.714C133.983 14.0932 134.175 14.2855 134.175 14.554V16.167C134.175 16.4359 133.983 16.6279 133.714 16.6279H122.27C121.502 16.6279 120.926 16.3975 120.389 15.8601ZM109.444 6.87376L114.052 11.4819C114.129 11.5589 114.282 11.5589 114.359 11.4819L114.935 10.9061C115.012 10.8291 115.012 10.6756 114.935 10.5987L110.327 5.99052C110.251 5.91358 110.097 5.91358 110.02 5.99052L109.444 6.5664C109.367 6.64333 109.367 6.79682 109.444 6.87376ZM123.576 11.4819L128.184 6.87376C128.261 6.79682 128.261 6.64333 128.184 6.5664L127.608 5.99052C127.531 5.91358 127.378 5.91358 127.301 5.99052L122.692 10.5987C122.616 10.6756 122.616 10.8291 122.692 10.9061L123.269 11.4819C123.345 11.5589 123.499 11.5589 123.576 11.4819ZM128.184 23.8477L123.576 19.2391C123.499 19.1626 123.345 19.1626 123.269 19.2391L122.692 19.8154C122.616 19.892 122.616 20.0458 122.692 20.1224L127.301 24.7309C127.378 24.8075 127.531 24.8075 127.608 24.7309L128.184 24.1547C128.261 24.0781 128.261 23.9243 128.184 23.8477ZM114.052 19.2391L109.444 23.8477C109.367 23.9243 109.367 24.0781 109.444 24.1547L110.02 24.7309C110.097 24.8075 110.251 24.8075 110.327 24.7309L114.935 20.1224C115.012 20.0458 115.012 19.892 114.935 19.8154L114.359 19.2391C114.282 19.1626 114.129 19.1626 114.052 19.2391Z" fill="#000a77"/>
<path d="M15.3563 60.2803H30.0197C30.4818 60.2803 30.7126 59.7607 30.366 59.4141L24.9973 54.0455C24.6507 53.6989 24.3045 53.5835 23.8425 53.5835H11.0842C8.25538 53.5835 6.69678 52.0249 6.69678 49.196V15.0201C6.69678 14.4426 6.35056 14.0964 5.77313 14.0964H0.923655C0.346614 14.0964 0 14.4426 0 15.0201V44.924C0 47.1754 0.692839 48.7919 2.25143 50.3509L9.92977 58.0288C11.4884 59.5874 13.1049 60.2803 15.3563 60.2803ZM42.4896 60.2803H50.5717C52.8231 60.2803 54.4396 59.5874 55.9982 58.0288L58.5963 55.4308C58.885 55.1425 59.2312 55.2579 59.2312 55.7195V59.3566C59.2312 59.934 59.5774 60.2803 60.1549 60.2803H65.0043C65.5814 60.2803 65.928 59.934 65.928 59.3566V24.9494C65.928 24.3724 65.5814 24.0258 65.0043 24.0258H60.1549C59.5774 24.0258 59.2312 24.3724 59.2312 24.9494V49.196C59.2312 52.0249 57.6726 53.5835 54.8438 53.5835H38.2176C35.3887 53.5835 33.8298 52.0249 33.8298 49.196V24.9494C33.8298 24.3724 33.4835 24.0258 32.9061 24.0258H28.057C27.4796 24.0258 27.1334 24.3724 27.1334 24.9494V44.924C27.1334 47.1754 27.8258 48.7919 29.3848 50.3509L37.0627 58.0288C38.6217 59.5874 40.2378 60.2803 42.4896 60.2803ZM103.452 44.8086V35.11C103.452 32.2812 101.894 30.7226 99.0649 30.7226H86.2488C80.5914 30.7226 78.0513 33.8398 78.0513 39.4975V49.196C78.0513 52.0249 79.6099 53.5835 82.4387 53.5835H95.2549C100.912 53.5835 103.452 50.4663 103.452 44.8086ZM71.3545 44.924V40.3057C71.3545 29.741 76.8389 24.0258 87.1724 24.0258H94.7929C97.0443 24.0258 98.6608 24.7186 100.22 26.2772L107.898 33.9555C109.456 35.5141 110.149 37.1306 110.149 39.3821V44.0003C110.149 54.565 104.665 60.2803 94.3312 60.2803H86.7108C84.4594 60.2803 82.8429 59.5874 81.2843 58.0288L73.6059 50.3509C72.0474 48.7919 71.3545 47.1754 71.3545 44.924Z" fill="#000a77"/>
<path d="M98.0274 69.7938C97.9815 69.9038 97.9139 69.9916 97.8246 70.0581C97.7352 70.1245 97.6303 70.1704 97.5106 70.196C97.3905 70.2213 97.2541 70.2341 97.101 70.2341H95.3093V68.5725H96.9763H97.101C97.2386 68.5725 97.3691 68.5877 97.4916 68.6184C97.614 68.6491 97.7185 68.6961 97.8051 68.7602C97.8922 68.824 97.9625 68.9067 98.0157 69.0089C98.0694 69.1111 98.0962 69.2335 98.0962 69.3765C98.0962 69.5448 98.0733 69.6843 98.0274 69.7938ZM97.0474 66.4054C97.1749 66.4054 97.2973 66.4183 97.415 66.4439C97.5323 66.4695 97.633 66.51 97.7173 66.5663C97.8016 66.6226 97.8677 66.6941 97.9163 66.7808C97.9648 66.8675 97.9893 66.972 97.9893 67.0948C97.9893 67.2121 97.9637 67.3167 97.9128 67.4087C97.8615 67.5005 97.7927 67.5782 97.7057 67.6423C97.619 67.706 97.5184 67.7546 97.4033 67.7876C97.2883 67.821 97.1698 67.8373 97.0474 67.8373H95.3093V66.4054H97.0474ZM98.8162 68.7408C98.7191 68.5523 98.5916 68.3938 98.4331 68.2663C98.4078 68.2457 98.3771 68.2302 98.3503 68.2112C98.6511 67.9718 98.8104 67.6073 98.8104 67.0948C98.8104 66.0604 98.1401 65.6395 97.1698 65.6395H95.3093H95.2094H94.4591V71H95.2094H95.3093H97.1698C97.4352 71 97.6777 70.9732 97.8972 70.9196C98.1168 70.8659 98.3056 70.7766 98.4638 70.6514C98.6219 70.5263 98.7447 70.362 98.8314 70.1576C98.918 69.9536 98.9616 69.7033 98.9616 69.4072C98.9616 69.1519 98.913 68.93 98.8162 68.7408ZM105.325 67.2246C105.325 66.8931 105.396 66.6238 105.539 66.4171C105.682 66.2104 105.867 66.0495 106.094 65.9345C106.321 65.8198 106.575 65.7421 106.856 65.7009C107.137 65.6601 107.415 65.6395 107.691 65.6395C107.982 65.6395 108.269 65.6563 108.552 65.6897C108.835 65.7227 109.089 65.7954 109.314 65.9077C109.539 66.02 109.72 66.1808 109.858 66.3903C109.996 66.5997 110.064 66.8803 110.064 67.2323H109.245C109.245 67.0283 109.198 66.8702 109.103 66.7579C109.009 66.6456 108.886 66.5624 108.736 66.5088C108.586 66.4552 108.418 66.4221 108.235 66.4093C108.05 66.3965 107.867 66.3903 107.683 66.3903C107.52 66.3903 107.347 66.3953 107.166 66.4054C106.985 66.4155 106.819 66.4478 106.669 66.501C106.518 66.5546 106.394 66.6351 106.297 66.7423C106.2 66.8496 106.152 67.0003 106.152 67.1942C106.152 67.3983 106.217 67.5591 106.347 67.6765C106.477 67.7942 106.677 67.8653 106.948 67.891L108.755 68.0518C108.969 68.0724 109.163 68.1144 109.337 68.1781C109.511 68.2422 109.657 68.3301 109.777 68.4424C109.897 68.5547 109.989 68.6899 110.053 68.848C110.117 69.0066 110.149 69.1877 110.149 69.3917C110.149 69.7542 110.072 70.0425 109.919 70.257C109.766 70.4715 109.567 70.6336 109.322 70.7435C109.077 70.8531 108.803 70.9234 108.502 70.9538C108.201 70.9845 107.905 71 107.614 71C107.333 71 107.053 70.981 106.772 70.9425C106.491 70.904 106.237 70.8275 106.01 70.7128C105.783 70.5978 105.599 70.4369 105.459 70.2302C105.318 70.0235 105.248 69.7492 105.248 69.4072H106.068C106.068 69.5961 106.116 69.7468 106.213 69.8587C106.31 69.9714 106.432 70.0569 106.58 70.1156C106.728 70.1743 106.894 70.2112 107.078 70.2267C107.262 70.2419 107.443 70.2493 107.622 70.2493C107.806 70.2493 107.998 70.2442 108.2 70.2341C108.401 70.224 108.587 70.1933 108.755 70.1424C108.924 70.0911 109.063 70.0118 109.172 69.905C109.282 69.7977 109.337 69.6497 109.337 69.4608C109.337 69.3485 109.319 69.2553 109.283 69.1811C109.248 69.1072 109.197 69.0462 109.13 68.9976C109.064 68.9491 108.983 68.9133 108.889 68.8904C108.795 68.8671 108.686 68.848 108.564 68.8329L106.749 68.6642C106.524 68.639 106.325 68.5893 106.152 68.515C105.978 68.4412 105.83 68.3441 105.707 68.224C105.585 68.1043 105.49 67.9598 105.424 67.7915C105.358 67.6229 105.325 67.4344 105.325 67.2246ZM101.68 65.6395H102.53V70.9996H101.68V65.6395ZM89.8113 65.6395L91.8253 71H90.8989L90.4392 69.7441H87.3764L86.8787 71H85.9597L88.0732 65.6395H88.9463L87.629 69.0089H90.1866L88.9463 65.6395H89.8113ZM83.3259 65.6395V71H81.6103L79.0072 65.6395V71H78.1648V65.6395H79.8644L82.4834 71V65.6395H83.3259ZM75.4847 65.6395V71H73.7695L71.166 65.6395V71H70.3236V65.6395H72.0236L74.6423 71V65.6395H75.4847ZM65.6758 65.6395L67.6898 71H66.763L66.3038 69.7441H63.241L62.7432 71H61.8242L63.9377 65.6395H64.8104L63.4935 69.0089H66.0512L64.8104 65.6395H65.6758ZM56.9771 71C56.5434 71 56.1552 70.9398 55.8133 70.8201C55.4713 70.7 55.1814 70.5252 54.944 70.2955C54.707 70.0659 54.5255 69.7849 54.4004 69.4531C54.2753 69.1212 54.2127 68.7462 54.2127 68.3273C54.2127 67.9088 54.2792 67.5339 54.412 67.202C54.5446 66.8702 54.7334 66.5881 54.9786 66.3557C55.2238 66.1237 55.5183 65.9461 55.863 65.8237C56.2077 65.7009 56.5943 65.6395 57.0233 65.6395C57.3447 65.6395 57.6575 65.6741 57.9609 65.7433C58.2648 65.8121 58.5392 65.9232 58.7843 66.0763C59.0292 66.2294 59.2347 66.4272 59.4006 66.6697C59.5666 66.9121 59.6726 67.2044 59.7185 67.5463H58.8531C58.8174 67.3831 58.7459 67.2339 58.6386 67.0983C58.5318 66.9634 58.3962 66.8472 58.2329 66.7501C58.0697 66.653 57.8832 66.578 57.6738 66.5243C57.4647 66.4703 57.2401 66.4439 57 66.4439C56.653 66.4439 56.3596 66.4936 56.1195 66.5931C55.8797 66.6926 55.6819 66.8267 55.5261 66.9949C55.3703 67.1636 55.2568 67.3625 55.1853 67.5925C55.1138 67.8222 55.0781 68.0647 55.0781 68.32C55.0781 68.5753 55.1115 68.8166 55.1775 69.0435C55.244 69.2708 55.3551 69.4709 55.5109 69.6446C55.6664 69.8183 55.8657 69.9536 56.1082 70.0503C56.3507 70.1475 56.6479 70.196 57 70.196C57.2044 70.196 57.4072 70.1743 57.6089 70.1307C57.8106 70.0876 57.9967 70.0212 58.1681 69.9318C58.339 69.8424 58.4867 69.7274 58.6122 69.5871C58.7369 69.4468 58.8224 69.277 58.8687 69.0777H59.7263C59.6699 69.42 59.5565 69.7122 59.3855 69.9547C59.2141 70.1972 59.0035 70.3961 58.7536 70.552C58.5034 70.7078 58.2252 70.8213 57.919 70.8928C57.6128 70.9643 57.2988 71 56.9771 71ZM44.4271 65.6399V70.2038H47.7044V71H43.784H43.5773V65.6399H44.4271ZM38.9295 65.6399L40.9431 71H40.0167L39.5574 69.7441H36.4942L35.9965 71H35.0779L37.191 65.6399H38.0641L36.7472 69.0089H39.3045L38.0641 65.6399H38.9295ZM30.2307 71C29.7967 71 29.4089 70.9402 29.0669 70.8201C28.7246 70.7004 28.4351 70.5252 28.1977 70.2955C27.9603 70.0659 27.7792 69.7853 27.6541 69.4531C27.5289 69.1216 27.4664 68.7462 27.4664 68.3277C27.4664 67.9088 27.5328 67.5339 27.6657 67.202C27.7982 66.8702 27.9871 66.5881 28.2323 66.3557C28.4771 66.1237 28.772 65.9461 29.1167 65.8237C29.4613 65.7009 29.848 65.6399 30.2766 65.6399C30.5983 65.6399 30.9107 65.6745 31.2146 65.7433C31.5185 65.8121 31.7928 65.9232 32.0376 66.0763C32.2828 66.2294 32.4884 66.4272 32.6543 66.6697C32.8202 66.9121 32.9259 67.2047 32.9722 67.5467H32.1068C32.071 67.3831 31.9995 67.2339 31.8923 67.0987C31.785 66.9634 31.6498 66.8472 31.4866 66.7501C31.323 66.6533 31.1369 66.578 30.9275 66.5243C30.718 66.4707 30.4934 66.4439 30.2537 66.4439C29.9067 66.4439 29.6129 66.4936 29.3731 66.5931C29.133 66.6926 28.9352 66.8267 28.7798 66.9953C28.6239 67.1636 28.5105 67.3629 28.439 67.5925C28.3675 67.8222 28.3317 68.0647 28.3317 68.32C28.3317 68.5753 28.3648 68.8166 28.4312 69.0435C28.4977 69.2708 28.6088 69.4713 28.7642 69.6446C28.92 69.8183 29.119 69.9536 29.3615 70.0503C29.6039 70.1475 29.9016 70.196 30.2537 70.196C30.4577 70.196 30.6609 70.1743 30.8626 70.1307C31.0642 70.0876 31.2504 70.0212 31.4213 69.9318C31.5923 69.8424 31.7404 69.7278 31.8655 69.5871C31.9906 69.4468 32.0761 69.277 32.1219 69.0781H32.9795C32.9236 69.42 32.8097 69.7122 32.6388 69.9547C32.4678 70.1972 32.2572 70.3965 32.0073 70.552C31.7571 70.7078 31.4788 70.8213 31.1726 70.8928C30.8664 70.9643 30.5525 71 30.2307 71ZM23.898 65.6399H24.7479V71H23.898V65.6399ZM17.068 66.4361V70.2038H18.4692C18.7602 70.2038 19.0194 70.1591 19.2464 70.0697C19.4737 69.9804 19.6649 69.8541 19.8207 69.6905C19.9765 69.5273 20.0938 69.3307 20.1731 69.101C20.252 68.8714 20.2916 68.6161 20.2916 68.3351C20.2916 68.0445 20.2497 67.7814 20.1653 67.5467C20.081 67.312 19.9586 67.1126 19.7977 66.9491C19.6369 66.7859 19.4391 66.6596 19.2044 66.5702C18.9697 66.4812 18.7016 66.4361 18.4004 66.4361H17.068ZM18.5842 71H16.2182V65.6399H18.515C18.9234 65.6399 19.291 65.7075 19.6178 65.8428C19.9446 65.978 20.224 66.1645 20.4564 66.4019C20.6884 66.6394 20.8671 66.9222 20.9922 67.2518C21.1174 67.5809 21.1799 67.9423 21.1799 68.3351C21.1799 68.7284 21.1174 69.0882 20.9922 69.415C20.8671 69.7418 20.6911 70.0227 20.4638 70.2574C20.2368 70.4921 19.9637 70.6744 19.6446 70.8045C19.3256 70.9351 18.972 71 18.5842 71ZM13.5381 65.6399V66.4361H9.97756V67.9065H13.5381V68.6724H9.97756V70.2038H13.5381V71H9.12735V65.6399H13.5381ZM0.834667 71H0V65.6399H1.64641L3.29282 71L4.81644 65.6399H6.44731V71H5.62041V65.6858H5.61265L4.10418 71H2.47331L0.842441 65.6551H0.834667V71Z" fill="#000a77"/>
</svg>
