<svg width="83" height="83" viewBox="0 0 83 83" fill="none" xmlns="http://www.w3.org/2000/svg">
<g clip-path="url(#clip0_2705_695)">
<path d="M51.9757 27.7008L64.2156 15.4609C64.6987 14.9778 65.4893 14.9778 65.9725 15.4609L67.5244 17.0129C68.0076 17.496 68.0076 18.2866 67.5244 18.7698L55.2845 31.0097C54.8014 31.4929 54.0108 31.4929 53.5276 31.0097L51.9757 29.4578C51.4925 28.9746 51.4925 28.184 51.9757 27.7008ZM27.7008 51.9757L15.4609 64.2156C14.9778 64.6987 14.9778 65.4893 15.4609 65.9725L17.0129 67.5244C17.496 68.0076 18.2866 68.0076 18.7698 67.5244L31.0097 55.2845C31.4929 54.8014 31.4929 54.0108 31.0097 53.5276L29.4578 51.9757C28.9746 51.4925 28.184 51.4925 27.7008 51.9757ZM29.4724 31.0243L31.0243 29.4724C31.5075 28.9892 31.5075 28.1986 31.0243 27.7155L18.7844 15.4756C18.3013 14.9924 17.5107 14.9924 17.0275 15.4756L15.4756 17.0275C14.9924 17.5107 14.9924 18.3013 15.4756 18.7844L27.7155 31.0243C28.1986 31.5075 28.9892 31.5075 29.4724 31.0243ZM51.9757 55.2992L64.2156 67.5391C64.6987 68.0222 65.4893 68.0222 65.9725 67.5391L67.5244 65.9871C68.0076 65.504 68.0076 64.7134 67.5244 64.2302L55.2845 51.9903C54.8014 51.5071 54.0108 51.5071 53.5276 51.9903L51.9757 53.5423C51.4925 54.0254 51.4925 54.816 51.9757 55.2992ZM39.5454 36.0169L46.9977 43.4692C48.169 44.6405 49.7502 45.2994 51.4047 45.2994H81.3602C82.2826 45.2994 83.0146 44.5527 83.0146 43.6449V39.3844C83.0146 38.462 82.268 37.7299 81.3602 37.7299H49.4574C47.1588 37.7299 45.314 35.8705 45.314 33.5865V1.65444C45.2847 0.746693 44.5527 0 43.6303 0H39.3697C38.4473 0 37.7153 0.746693 37.7153 1.65444V31.61C37.7153 33.2644 38.3741 34.8457 39.5454 36.0169ZM1.65444 37.7153C0.746693 37.7153 0 38.462 0 39.3697V43.6303C0 44.5527 0.746693 45.2847 1.65444 45.2847H33.5572C35.8559 45.2847 37.7007 47.1441 37.7007 49.4281V81.3309C37.7007 82.2533 38.4473 82.9854 39.3551 82.9854H43.6156C44.538 82.9854 45.2701 82.2387 45.2701 81.3309V51.3754C45.2701 49.7209 44.6112 48.1397 43.4399 46.9684L35.9877 39.5161C34.8164 38.3449 33.2351 37.686 31.5807 37.686H1.65444V37.7153Z" fill="#000A77"/>
</g>
<defs>
<clipPath id="clip0_2705_695">
<rect width="83" height="83" fill="white"/>
</clipPath>
</defs>
</svg>
