<svg width="33" height="47" viewBox="0 0 33 47" fill="none" xmlns="http://www.w3.org/2000/svg">
<path d="M21.8399 39.7607H26.5014C26.7986 39.7607 27.0405 40.0026 27.0405 40.2998V43.562C27.0405 43.8592 26.7986 44.1011 26.5014 44.1011H21.8399C21.5426 44.1011 21.3008 43.8592 21.3008 43.562V40.2998C21.3008 40.0026 21.5426 39.7607 21.8399 39.7607Z" fill="#01CFC9"/>
<path d="M15.5908 33.8515L12.9249 31.1856L10.1372 28.3979C9.77723 28.0379 9.97477 27.4472 10.4326 27.3401C10.4806 27.3272 10.5305 27.3216 10.584 27.3216H12.9766C13.2757 27.3216 13.5194 27.0779 13.5194 26.7789V23.537C13.5194 23.2379 13.2757 22.9961 12.9766 22.9961H9.624C9.49108 22.9961 9.36185 23.009 9.23631 23.0349C8.29108 23.1419 7.41785 23.4816 6.72923 24.1702L1.27938 29.6293C0.420923 30.4878 0 31.6306 0 32.8453V46.0287C0 46.3573 0.265846 46.6232 0.594462 46.6232H3.72739C4.056 46.6232 4.32185 46.3573 4.32185 46.0287V29.8656C4.32185 28.4699 5.45169 27.3401 6.84739 27.3401H7.70031V31.2816C7.70215 31.7912 7.90523 32.2804 8.26523 32.6422L8.81169 33.1887L9.86769 34.2429L12.5354 36.9106C12.7514 37.1266 13.1022 37.1266 13.3182 36.9106L15.5945 34.6342C15.8105 34.4182 15.8105 34.0675 15.5945 33.8515H15.5908Z" fill="#01CFC9"/>
<path d="M31.4564 29.4798L26.0232 24.1702C25.4619 23.609 24.7825 23.2804 24.0385 23.1216C23.8262 23.0404 23.5955 22.9961 23.3536 22.9961H20.001C19.7019 22.9961 19.4582 23.2379 19.4582 23.537V26.7789C19.4582 27.0779 19.7019 27.3216 20.001 27.3216H22.3936C22.4472 27.3216 22.497 27.3272 22.545 27.3401C23.0028 27.4472 23.2004 28.0379 22.8404 28.3979L20.0527 31.1856L20.0601 31.193L17.6398 33.6133H17.6379L17.0619 34.1875C16.1702 35.0792 15.6699 36.2884 15.6699 37.5493V43.5475C15.6699 43.8539 15.9173 44.1013 16.2238 44.1013H19.4564C19.7628 44.1013 20.0102 43.8539 20.0102 43.5475V38.3635C20.0102 37.7339 20.2613 37.1284 20.7062 36.6835L20.6952 36.6724L23.1228 34.2447L23.1155 34.2373L24.1641 33.1887L24.7124 32.6422C25.0724 32.2804 25.2755 31.7912 25.2755 31.2816V27.3401H25.8865C27.2822 27.3401 28.4121 28.4699 28.4121 29.8656V46.0287C28.4121 46.3573 28.6779 46.6232 29.0065 46.6232H32.1395C32.4681 46.6232 32.7339 46.3573 32.7339 46.0287V32.6939C32.7339 31.4792 32.3148 30.3382 31.4545 29.4798H31.4564Z" fill="#01CFC9"/>
<path d="M16.7654 21.1071C22.5826 21.1071 27.318 16.3717 27.318 10.5545C27.318 4.73723 22.5826 0 16.7654 0C10.9482 0 6.21094 4.73538 6.21094 10.5545C6.21094 16.3735 10.9463 21.1071 16.7654 21.1071ZM16.7654 4.33662C20.1919 4.33662 22.9814 7.12615 22.9814 10.5545C22.9814 13.9828 20.1919 16.7705 16.7654 16.7705C13.3389 16.7705 10.5476 13.9809 10.5476 10.5545C10.5476 7.128 13.3371 4.33662 16.7654 4.33662Z" fill="#01CFC9"/>
</svg>
