<svg width="51" height="48" viewBox="0 0 51 48" fill="none" xmlns="http://www.w3.org/2000/svg">
<path d="M50.8038 37.9937C50.7384 37.8316 50.6555 37.6745 50.5574 37.5251C50.4593 37.3756 50.3461 37.2338 50.2153 37.102L46.3851 33.2439L35.2767 22.0546C34.6581 21.4315 34.3035 20.5955 34.3035 19.719V8.02308H34.3085V0.542445C34.3085 0.0611316 33.7301 -0.182059 33.3906 0.159927L30.2092 3.367C28.9341 4.65388 28.2978 6.33848 28.2953 8.02308V20.8539C28.2953 22.6094 28.9894 24.294 30.2218 25.5378L31.024 26.3383L32.1507 27.4732H18.8493L19.976 26.3383H19.9835L20.7808 25.5378C22.0131 24.294 22.7072 22.6094 22.7072 20.8539V19.719H22.7047V8.02308H22.7072C22.7047 6.33848 22.0684 4.65388 20.7908 3.367L17.6069 0.159927C17.2699 -0.182059 16.6915 0.0611316 16.6915 0.542445V3.57472C16.694 3.60259 16.694 3.63045 16.694 3.65832V6.04462L16.6915 16.1775H16.6965V19.719C16.6965 20.5955 16.3495 21.4391 15.7333 22.0622L15.7233 22.0546L14.7525 23.0299L4.61236 33.2439L0.784654 37.102C-0.261551 38.1533 -0.261551 39.8607 0.784654 40.9146L3.14365 43.2907L7.03925 47.2122C7.53972 47.7163 8.22126 48 8.93047 48H42.0695C42.7787 48 43.4603 47.7163 43.9607 47.2122L47.8538 43.2907L50.2153 40.9146C50.2807 40.8487 50.3411 40.7803 50.3989 40.7094C50.7988 40.2154 51 39.6125 51 39.007C51 38.6625 50.9346 38.318 50.8038 37.9937ZM44.3983 41.943H6.60166C5.81952 41.943 5.42719 40.9905 5.98047 40.4358L8.86508 37.5276L12.8361 33.5302H38.1639L42.1324 37.5276L45.0195 40.4358C45.5728 40.9905 45.1805 41.943 44.3983 41.943Z" fill="#01CFC9"/>
</svg>
