<svg width="52" height="48" viewBox="0 0 52 48" fill="none" xmlns="http://www.w3.org/2000/svg">
<path d="M25.7455 0C11.3095 0 0.00278902 7.58175 0 17.2674V30.7298C0 40.4127 11.3095 48 25.7455 48C40.1814 48 51.4909 40.4127 51.4909 30.7298V17.2674C51.4909 7.58175 40.1842 0 25.7455 0ZM45.0762 30.7298C45.0762 34.2382 41.8883 36.7477 39.989 37.9339C36.2322 40.2756 31.1757 41.5653 25.7455 41.5653C20.3152 41.5653 15.2559 40.2756 11.5019 37.9339C9.6026 36.7477 6.41475 34.2382 6.41475 30.7298V28.7911C11.0947 32.3357 17.9669 34.5375 25.7455 34.5375C33.524 34.5375 40.3934 32.3357 45.0762 28.7911V30.7298ZM39.989 24.4714C36.235 26.8131 31.1757 28.1028 25.7455 28.1028C20.3152 28.1028 15.2587 26.8131 11.5019 24.4714C9.6026 23.288 6.41475 20.7785 6.41475 17.2702C6.41475 13.7618 9.6026 11.2495 11.5019 10.0661C15.2587 7.72443 20.3152 6.43469 25.7455 6.43469C31.1757 6.43469 36.235 7.72443 39.989 10.0661C41.8911 11.2495 45.0762 13.7618 45.0762 17.2702C45.0762 20.7785 41.8911 23.288 39.989 24.4714Z" fill="#01CFC9"/>
</svg>
