<svg width="47" height="48" viewBox="0 0 47 48" fill="none" xmlns="http://www.w3.org/2000/svg">
<path d="M44.8521 34.9736C43.8304 34.3464 42.5208 34 41.1664 34C39.8119 34 38.5023 34.3464 37.4806 34.9736C36.4312 35.6199 35.7273 36.5301 35.4564 37.5544C35.2602 37.5396 35.0619 37.5312 34.8614 37.5312C33.5069 37.5312 32.1994 37.8775 31.1756 38.5069C29.8255 39.3369 29.0448 40.604 29.0277 41.9937V42.0401L29 43.4446V43.491C29 46.0612 31.5084 48 34.8336 48C37.7323 48 40.0103 46.528 40.5478 44.4477C40.7419 44.4625 40.9381 44.4688 41.1386 44.4688C44.4533 44.4688 46.9552 42.5449 46.9744 39.9873L47 38.6399C47 38.6125 47 38.585 47 38.5554V38.509C47 37.1024 46.2172 35.8141 44.85 34.9736H44.8521ZM34.8614 39.9599C35.0107 39.9599 35.16 39.9662 35.305 39.9768C35.3093 40.7117 35.5162 41.396 35.8916 41.9958C35.9001 42.0106 35.9108 42.0253 35.9214 42.0401C36.2712 42.5871 36.7597 43.0644 37.3569 43.4467C36.7384 43.8606 35.8489 44.1225 34.8614 44.1225C32.995 44.1225 31.4806 43.189 31.4806 42.0401C31.4806 40.8912 32.995 39.9599 34.8614 39.9599ZM41.1664 40.5892C40.8955 40.5892 40.631 40.5702 40.3793 40.5322C38.8926 40.3147 37.7856 39.491 37.7856 38.509C37.7856 38.3823 37.8048 38.2577 37.8411 38.1373C38.1248 37.1658 39.5069 36.4287 41.1664 36.4287C43.0348 36.4287 44.5492 37.3601 44.5492 38.509C44.5492 39.6579 43.0348 40.5892 41.1664 40.5892Z" fill="#01CFC9"/>
<path d="M36.2311 18.1479C36.2311 18.1479 36.2249 18.1438 36.2228 18.1396L20.7725 2.69714H20.7704C18.6807 0.651762 15.7731 -0.281145 12.5703 0.0738552C9.53272 0.412343 6.56531 1.89013 4.21947 4.23891C-0.742723 9.19859 -1.42211 16.5979 2.68105 20.7815L18.1211 36.2157C18.1272 36.2219 18.1334 36.2281 18.1396 36.2364C19.9465 38.0403 22.375 39 25.0842 39C25.5199 39 25.9598 38.9752 26.4079 38.9257C27.9277 38.7565 29.4269 38.3024 30.8435 37.5965C32.258 36.8927 33.5858 35.9371 34.7608 34.7627C37.1087 32.416 38.5873 29.4501 38.9259 26.414C39.2852 23.1777 38.3291 20.2449 36.2352 18.15L36.2311 18.1479ZM17.2228 17.2356C15.1309 19.3264 13.7309 21.9105 13.2105 24.5977L6.10069 17.4916C3.77756 15.1696 4.44043 10.73 7.57716 7.5949C9.16515 6.00772 11.1248 5.01083 13.0948 4.79205C14.8666 4.59391 16.4236 5.06656 17.4768 6.11917L24.5866 13.2254C21.8979 13.7455 19.3146 15.1448 17.2228 17.2377V17.2356ZM34.2012 25.8856C34.0918 26.8702 33.7882 27.8526 33.3133 28.7876C32.8383 29.7225 32.192 30.61 31.3969 31.4026C29.809 32.9898 27.8493 33.9867 25.8793 34.2054C24.1034 34.4015 22.5484 33.9309 21.4953 32.8783L21.4891 32.8721C20.44 31.8174 19.9692 30.2633 20.1675 28.4965C20.3864 26.5255 21.3817 24.5668 22.9697 22.9796C24.5577 21.3924 26.5173 20.3976 28.4894 20.1768C28.7537 20.1479 29.0119 20.1334 29.2659 20.1334C30.7155 20.1334 31.9751 20.6081 32.8734 21.5059C33.9266 22.5586 34.3974 24.1148 34.2012 25.8856Z" fill="#01CFC9"/>
</svg>
