<svg width="38" height="41" viewBox="0 0 38 41" fill="none" xmlns="http://www.w3.org/2000/svg">
<path d="M29.5662 18.9286L29.5588 26.0345C29.5182 27.3028 29.0271 27.9212 28.0745 28.9588L18.9618 38.0732C17.6658 39.3692 16.2388 39.3692 14.9428 38.0732L5.89292 28.9588C4.94031 27.9212 4.44739 27.3028 4.40862 26.0345L4.38831 7.18154C4.38831 5.34831 5.39815 4.33846 7.23139 4.33846H26.7379C28.5711 4.33846 29.5791 5.34831 29.5791 7.18154V9.10892L32.352 6.32677L27.4837 1.45846C26.4739 0.448615 25.4271 0 23.9686 0H9.99693C8.53846 0 7.49169 0.448615 6.48185 1.45846L1.50831 6.432C0.498462 7.44185 0.0498462 8.48862 0.0498462 9.94708L0 26.0751C0.0147692 27.2806 -0.0793848 29.1046 1.31631 30.5889L9.91939 39.1809C10.9514 40.2129 12.0092 40.6357 13.4363 40.6357H20.4702C21.8972 40.6357 22.9551 40.2129 23.9871 39.1809L30.7865 32.4055L32.6529 30.5889C34.0468 29.1046 33.9526 27.2806 33.9692 26.0751L33.9342 14.5514L29.5699 18.9249L29.5662 18.9286Z" fill="#01CFC9"/>
<path d="M19.1044 21.4375C17.8084 22.7335 16.3813 22.7335 15.0853 21.4375L11.0607 17.2597C10.8225 17.0252 10.4367 17.0252 10.1985 17.2597L7.91299 19.4991C7.67484 19.7335 7.67484 20.112 7.91299 20.3465L10.0619 22.5489C11.0939 23.5809 12.1518 24.0037 13.5788 24.0037H20.6127C22.0398 24.0037 23.0976 23.5809 24.1296 22.5489L36.9659 9.68677C37.2041 9.4523 37.2041 9.07384 36.9659 8.83938L34.7653 6.60553C34.5271 6.37107 34.1413 6.37107 33.9031 6.60553L19.1062 21.4375H19.1044Z" fill="#01CFC9"/>
</svg>
